<?xml version="1.0" encoding="utf-8"?>
<!-- Generator: Adobe Illustrator 24.1.3, SVG Export Plug-In . SVG Version: 6.00 Build 0)  -->
<svg version="1.1" id="Layer_1" xmlns="http://www.w3.org/2000/svg" xmlns:xlink="http://www.w3.org/1999/xlink" x="0px" y="0px"
	 viewBox="0 0 87.6 27.9" style="enable-background:new 0 0 87.6 27.9;" xml:space="preserve">
<style type="text/css">
	.st0{display:none;stroke:#FFFFFF;stroke-miterlimit:10;}
	.st1{fill:#FFFFFF;}
	.st2{opacity:0.75;}
	.st3{display:none;}
	.st4{display:inline;opacity:0.3;fill:#FFFFFF;enable-background:new    ;}
	.st5{display:inline;opacity:0.5;fill:#FFFFFF;enable-background:new    ;}
	.st6{display:inline;fill:none;stroke:#FFFFFF;stroke-width:1.5;stroke-miterlimit:10;}
	.st7{display:inline;fill:none;stroke:url(#SVGID_1_);stroke-width:1.5;stroke-miterlimit:10;}
	.st8{display:inline;fill:none;stroke:#FFFFFF;stroke-miterlimit:10;}
</style>
<rect x="-73.8" y="-40.8" class="st0" width="212" height="100"/>
<g>
	<path class="st1" d="M11.5,2.5v15.6H7.1V6.2L5.1,10h1v3.4H0l4.6-11L11.5,2.5z"/>
	<path class="st1" d="M20.6,9.3H25c0.9,1,1.4,2.4,1.4,3.7c0,1.5-0.6,2.9-1.7,3.8c-1.1,1-2.6,1.6-4.1,1.6c-2.1,0-4-0.9-5.4-2.4
		c-1.5-1.6-2.3-3.7-2.2-5.9c-0.1-2.2,0.8-4.2,2.3-5.8c1.5-1.5,3.5-2.4,5.6-2.3c0.9,0,1.7,0.2,2.6,0.5v4.6c-0.6-0.3-1.3-0.5-2-0.5
		c-1,0-2,0.3-2.7,1c-0.7,0.7-1,1.7-1,2.6c0,1,0.3,1.9,1,2.6c0.7,0.7,1.6,1,2.6,1c0.7,0,1-0.2,1-0.6s-0.2-0.5-0.7-0.5h-1.1V9.3z"/>
	<path class="st1" d="M41,7v11.1h-4.7V7h-3.6V2.5h11.8V7H41z"/>
	<path class="st1" d="M54.6,8.5V12h-3c-0.3,0-0.6,0-0.9,0.2c-0.2,0.1-0.3,0.4-0.3,0.6c0,0.2,0.1,0.5,0.3,0.6
		c0.3,0.1,0.7,0.2,1.1,0.2h3.1v4.5h-3.7c-1.4,0.1-2.8-0.3-3.9-1.2c-1-0.9-1.5-2.2-1.4-3.5V7.2c-0.1-1.3,0.4-2.6,1.3-3.5
		c1-0.9,2.3-1.3,3.6-1.2h4V7h-3c-0.8,0-1.2,0.3-1.2,0.8c0,0.2,0.1,0.5,0.3,0.6c0.3,0.1,0.7,0.2,1,0.2L54.6,8.5z"/>
	<path class="st1" d="M63.2,10.2v4.1h-1.3v3.7h-4.6V8.2c-0.1-1.6,0.5-3.3,1.6-4.5C60,2.6,61.6,2,63.2,2.1c1.5-0.1,3,0.4,4.1,1.5
		c1,1.3,1.4,2.9,1.3,4.4v10.1h-4.7V8.3c0-0.4,0-0.9-0.2-1.3c-0.2-0.3-0.5-0.4-0.8-0.4c-0.7,0-1.1,0.5-1.1,1.6v1.9L63.2,10.2z"/>
	<path class="st1" d="M71.1,18.1V6.8c0-1.3,0.4-2.5,1.3-3.4c0.9-0.9,2.1-1.4,3.3-1.3c1.6,0,3,0.8,3.7,2.2c0.4-0.7,1-1.3,1.7-1.7
		c0.7-0.4,1.5-0.5,2.2-0.5c1.2-0.1,2.4,0.4,3.2,1.3c0.8,1.1,1.2,2.5,1.1,3.8v10.9H83V8c0-0.3,0-0.7-0.1-1c-0.1-0.2-0.3-0.3-0.5-0.3
		c-0.5,0-0.7,0.4-0.7,1.2v10.2H77V8c0-0.3,0-0.7-0.1-1c-0.1-0.2-0.3-0.3-0.5-0.3c-0.5,0-0.7,0.4-0.7,1.3v10.1H71.1z"/>
	<g class="st2">
		<path class="st1" d="M1.5,25.6c-0.3-0.2-0.5-0.5-0.6-0.8c-0.1-0.5-0.2-0.9-0.2-1.4c0-0.5,0.1-0.9,0.2-1.4c0.1-0.3,0.3-0.6,0.6-0.8
			c0.3-0.2,0.7-0.3,1.1-0.2c0.5,0,0.9,0.1,1.4,0.1h0.2v0.7c-0.4-0.1-0.9-0.1-1.3-0.1c-0.3,0-0.6,0-0.8,0.2c-0.2,0.1-0.3,0.3-0.3,0.5
			c0,0.3-0.1,0.6-0.1,0.9c0,0.3,0,0.6,0.1,0.9c0,0.2,0.1,0.4,0.3,0.5C2.3,25,2.6,25,2.8,25c0.2,0,0.4,0,0.6,0v-0.9H2.8v-0.8h1.3v2.4
			c-0.5,0.1-1.1,0.1-1.6,0.2C2.2,25.9,1.8,25.8,1.5,25.6z"/>
		<path class="st1" d="M5.2,21.2H7c1.1,0,1.6,0.5,1.6,1.5c0,0.5-0.3,1-0.7,1.3l0.7,1.8h-1L7,24.2H6.1v1.6H5.2V21.2z M7,23.4
			c0.2,0,0.4-0.1,0.5-0.2c0.1-0.2,0.2-0.4,0.2-0.5c0-0.2-0.1-0.4-0.2-0.5C7.4,22,7.2,22,7,22H6.1v1.5L7,23.4z"/>
		<path class="st1" d="M11.8,25h-1.6L10,25.8H9l1-4.6h1.8l1,4.6H12L11.8,25z M11.1,22h-0.3l-0.5,2.2h1.3L11.1,22z"/>
		<path class="st1" d="M17.3,21.2v4.6h-1.5L14.6,22h-0.1v3.8h-0.9v-4.6h1.6l1.1,3.8h0.1v-3.8H17.3z"/>
		<path class="st1" d="M21.2,21.4c0.3,0.1,0.5,0.4,0.6,0.7c0.1,0.4,0.2,0.9,0.2,1.3c0,0.5,0,0.9-0.2,1.4c-0.1,0.3-0.3,0.6-0.6,0.8
			c-0.4,0.2-0.8,0.3-1.2,0.3h-1.6v-4.6H20C20.4,21.1,20.8,21.2,21.2,21.4z M20.6,24.8c0.1-0.1,0.2-0.3,0.3-0.5
			c0.1-0.3,0.1-0.6,0.1-0.9c0-0.3,0-0.6-0.1-0.8c0-0.2-0.1-0.3-0.3-0.4C20.4,22,20.2,22,20,22h-0.6v3H20
			C20.2,25,20.4,24.9,20.6,24.8z"/>
		<path class="st1" d="M25,25.6c-0.3-0.2-0.5-0.5-0.6-0.8c-0.1-0.5-0.2-0.9-0.2-1.4c0-0.5,0-0.9,0.2-1.4c0.1-0.3,0.3-0.6,0.6-0.8
			c0.3-0.2,0.7-0.3,1.1-0.2c0.5,0,0.9,0.1,1.4,0.1h0.2v0.7c-0.4-0.1-0.9-0.1-1.3-0.1c-0.3,0-0.5,0-0.8,0.2c-0.2,0.1-0.3,0.3-0.3,0.5
			c0,0.3-0.1,0.6-0.1,0.9c0,0.3,0,0.6,0.1,0.9c0,0.2,0.1,0.4,0.3,0.5C25.8,25,26,25,26.2,25c0.2,0,0.4,0,0.6,0v-0.9h-0.4v-0.8h1.4
			v2.4c-0.5,0.1-1.1,0.1-1.6,0.2C25.8,25.9,25.4,25.8,25,25.6z"/>
		<path class="st1" d="M28.6,21.2h1.8c1.1,0,1.6,0.5,1.6,1.5c0,0.5-0.2,1-0.7,1.3l0.6,1.8h-1l-0.5-1.6h-0.9v1.6h-1L28.6,21.2z
			 M30.4,23.4c0.2,0,0.4-0.1,0.5-0.2c0.1-0.2,0.2-0.4,0.2-0.5c0-0.2-0.1-0.4-0.2-0.5c-0.1-0.1-0.3-0.2-0.5-0.2h-0.9v1.5H30.4z"/>
		<path class="st1" d="M33.9,22v1.1h1.7v0.8h-1.7V25h2.1v0.8h-3v-4.6h3V22H33.9z"/>
		<path class="st1" d="M39.1,25h-1.6l-0.2,0.8h-0.9l1-4.6h1.8l1,4.6h-0.9L39.1,25z M38.5,22h-0.3l-0.5,2.2H39L38.5,22z"/>
		<path class="st1" d="M41.5,22h-1.2v-0.8h3.4V22h-1.2v3.8h-0.9L41.5,22z"/>
		<path class="st1" d="M46.5,25.6c-0.3-0.2-0.5-0.4-0.6-0.8c-0.1-0.5-0.2-0.9-0.2-1.4c0-0.5,0-0.9,0.2-1.4c0.1-0.3,0.3-0.6,0.6-0.8
			c0.3-0.2,0.7-0.3,1.1-0.2c0.5,0,0.9,0.1,1.4,0.1h0.3v0.7c-0.4-0.1-0.9-0.1-1.3-0.1c-0.3,0-0.5,0-0.8,0.2c-0.2,0.1-0.3,0.3-0.3,0.5
			c0,0.3-0.1,0.6-0.1,0.9c0,0.3,0,0.6,0.1,0.9c0,0.2,0.1,0.4,0.3,0.5c0.2,0.1,0.4,0.2,0.6,0.2c0.2,0,0.4,0,0.6,0v-0.9h-0.4v-0.8h1.3
			v2.4c-0.5,0.1-1.1,0.1-1.6,0.2C47.3,25.9,46.9,25.8,46.5,25.6z"/>
		<path class="st1" d="M50.8,25.6c-0.3-0.2-0.5-0.4-0.6-0.8C50,24.4,50,24,50,23.5c0-0.5,0.1-0.9,0.2-1.4c0.1-0.3,0.3-0.6,0.6-0.8
			c0.7-0.3,1.5-0.3,2.3,0c0.3,0.2,0.5,0.5,0.6,0.8c0.1,0.4,0.2,0.9,0.2,1.4c0,0.5,0,0.9-0.2,1.3c-0.1,0.3-0.3,0.6-0.6,0.8
			c-0.3,0.2-0.7,0.3-1.1,0.3C51.5,25.9,51.1,25.8,50.8,25.6z M52.5,24.9c0.2-0.1,0.3-0.3,0.3-0.5c0.1-0.6,0.1-1.2,0-1.8
			c0-0.2-0.1-0.4-0.3-0.5c-0.4-0.2-0.8-0.2-1.1,0c-0.1,0.1-0.3,0.3-0.3,0.5c-0.1,0.3-0.1,0.6-0.1,0.9c0,0.3,0,0.6,0.1,0.9
			c0,0.2,0.1,0.4,0.3,0.5c0.2,0.1,0.4,0.2,0.6,0.2C52.1,25.1,52.3,25,52.5,24.9z"/>
		<path class="st1" d="M57.3,25v0.8h-2.6v-4.7h0.9V25H57.3z"/>
		<path class="st1" d="M60.8,21.4c0.3,0.1,0.5,0.4,0.6,0.7c0.1,0.4,0.2,0.9,0.2,1.3c0,0.5,0,0.9-0.2,1.4c-0.1,0.3-0.3,0.6-0.6,0.8
			c-0.4,0.2-0.8,0.3-1.2,0.3H58v-4.6h1.6C60,21.1,60.4,21.2,60.8,21.4z M60.2,24.8c0.2-0.1,0.2-0.3,0.3-0.5c0-0.3,0.1-0.6,0.1-0.9
			c0-0.3,0-0.6-0.1-0.8c0-0.2-0.1-0.3-0.3-0.4C60,22,59.8,22,59.5,22h-0.6v3h0.6C59.8,25,60,24.9,60.2,24.8z"/>
		<path class="st1" d="M63.3,22v1.1H65v0.8h-1.7V25h2.1v0.8h-3v-4.6h3V22H63.3z"/>
		<path class="st1" d="M70,21.2v4.6h-1.6L67.3,22h-0.1v3.8h-0.9v-4.6h1.6L69,25l0,0v-3.8H70z"/>
		<path class="st1" d="M73.2,25.6c-0.3-0.2-0.5-0.4-0.6-0.8c-0.1-0.5-0.2-0.9-0.2-1.4c0-0.5,0-0.9,0.2-1.4c0.1-0.3,0.3-0.6,0.6-0.8
			c0.3-0.2,0.7-0.3,1.1-0.2c0.5,0,0.9,0.1,1.4,0.1h0.3v0.7c-0.4-0.1-0.9-0.1-1.3-0.1c-0.3,0-0.5,0-0.8,0.2c-0.2,0.1-0.3,0.3-0.3,0.5
			c0,0.3-0.1,0.6-0.1,0.9c0,0.3,0,0.6,0.1,0.9c0,0.2,0.1,0.4,0.3,0.5C74,25,74.2,25,74.5,25c0.2,0,0.4,0,0.6,0v-0.9h-0.4v-0.8H76
			v2.4c-0.5,0.1-1.1,0.1-1.6,0.2C74,25.9,73.6,25.8,73.2,25.6z"/>
		<path class="st1" d="M79.2,25h-1.6l-0.2,0.8h-0.9l1-4.6h1.8l1,4.6h-0.9L79.2,25z M78.6,22h-0.3l-0.5,2.2h1.3L78.6,22z"/>
		<path class="st1" d="M81.6,22h-1.2v-0.8h3.4V22h-1.2v3.8h-0.9V22z"/>
		<path class="st1" d="M85.4,22v1.1h1.7v0.8h-1.7V25h2.1v0.8h-3v-4.6h3V22H85.4z"/>
	</g>
</g>
<g class="st3">
	<path class="st4" d="M67,14.5c0,13.9,11.3,25.3,25.2,25.3c0,0,0,0,0.1,0V14.5H67z"/>
	<path class="st4" d="M67,13.6c0-13.9,11.3-25.3,25.2-25.3c0,0,0,0,0.1,0v25.3H67z"/>
	<path class="st6" d="M85.2-7c-5.5-1.5-11.1,1.7-12.6,7.2c-1.5,5.5,1.7,11.1,7.2,12.6c5.5,1.5,11.1-1.7,12.6-7.2"/>
	<path class="st6" d="M85.6,15c-5.5-1.5-11.1,1.7-12.6,7.2c-1.5,5.5,1.7,11.1,7.2,12.6s11.1-1.7,12.6-7.2c0,0,0,0,0,0"/>
	<circle class="st8" cx="93.2" cy="13.6" r="28.3"/>
</g>
</svg>
