<svg id="Layer_1" data-name="Layer 1" xmlns="http://www.w3.org/2000/svg" xmlns:xlink="http://www.w3.org/1999/xlink" viewBox="0 0 157.5 60"><defs><style>.cls-1,.cls-3,.cls-4{fill:#fff;}.cls-2{opacity:0.75;}.cls-3{opacity:0.3;}.cls-4{opacity:0.5;}.cls-5,.cls-6,.cls-7{fill:none;stroke-miterlimit:10;}.cls-5,.cls-7{stroke:#fff;}.cls-5,.cls-6{stroke-width:1.5px;}.cls-6{stroke:url(#Orange_Yellow);}</style><linearGradient id="Orange_Yellow" x1="128.81" y1="17.46" x2="151.73" y2="17.46" gradientUnits="userSpaceOnUse"><stop offset="0" stop-color="#fff23a"/><stop offset="0.04" stop-color="#fee62d"/><stop offset="0.12" stop-color="#fed41a"/><stop offset="0.2" stop-color="#fdc90f"/><stop offset="0.28" stop-color="#fdc60b"/><stop offset="0.67" stop-color="#f28f3f"/><stop offset="0.89" stop-color="#ed693c"/><stop offset="1" stop-color="#e83e39"/></linearGradient></defs><path class="cls-1" d="M11.48,18.49V34.11H7.08V22.19L5.14,26.06h1v3.39H0l4.62-11Z"/><path class="cls-1" d="M20.57,25.36H25a5.89,5.89,0,0,1,1.43,3.74,5,5,0,0,1-1.68,3.84,5.81,5.81,0,0,1-4.12,1.56,7.07,7.07,0,0,1-5.4-2.42A8.36,8.36,0,0,1,13,26.2a8,8,0,0,1,2.26-5.79,7.59,7.59,0,0,1,5.65-2.31,8.25,8.25,0,0,1,2.56.47v4.65a4.68,4.68,0,0,0-2-.52,3.67,3.67,0,0,0-2.68,1,3.54,3.54,0,0,0-1,2.64,3.6,3.6,0,0,0,1,2.64,3.52,3.52,0,0,0,2.6,1c.69,0,1-.2,1-.61s-.23-.46-.69-.46H20.57Z"/><path class="cls-1" d="M41,23V34.11H36.33V23H32.77V18.49H44.52V23Z"/><path class="cls-1" d="M54.56,24.57v3.48h-3a1.57,1.57,0,0,0-.87.18.71.71,0,0,0-.26.62.68.68,0,0,0,.26.64,2.36,2.36,0,0,0,1.08.16h3.12v4.46H51.21a5.66,5.66,0,0,1-3.93-1.23,4.53,4.53,0,0,1-1.37-3.55V23.21a4.58,4.58,0,0,1,1.29-3.48,5,5,0,0,1,3.62-1.24h4V23h-3q-1.2,0-1.2.78a.68.68,0,0,0,.28.63,2.05,2.05,0,0,0,1,.18Z"/><path class="cls-1" d="M63.19,26.27v4.12H61.85v3.72H57.21V24.18a6.1,6.1,0,0,1,1.57-4.48,5.94,5.94,0,0,1,4.42-1.6,5.23,5.23,0,0,1,4.06,1.45A6.49,6.49,0,0,1,68.58,24V34.11H63.93V24.33a2.68,2.68,0,0,0-.21-1.27.85.85,0,0,0-.78-.36c-.73,0-1.09.54-1.09,1.63v1.94Z"/><path class="cls-1" d="M71.07,34.11V22.85a4.75,4.75,0,0,1,1.28-3.42,4.35,4.35,0,0,1,3.29-1.33,4.09,4.09,0,0,1,3.7,2.21A5.16,5.16,0,0,1,81,18.61a4.48,4.48,0,0,1,2.23-.51,4,4,0,0,1,3.23,1.33,5.82,5.82,0,0,1,1.12,3.82V34.11H83V24a2.68,2.68,0,0,0-.12-1,.47.47,0,0,0-.48-.25q-.69,0-.69,1.17V34.11H77V24a2.71,2.71,0,0,0-.12-1,.52.52,0,0,0-.49-.25c-.46,0-.69.42-.69,1.25V34.11Z"/><g class="cls-2"><path class="cls-1" d="M1.49,41.64a1.38,1.38,0,0,1-.59-.77,4.42,4.42,0,0,1-.18-1.39A4.32,4.32,0,0,1,.91,38.1a1.39,1.39,0,0,1,.59-.76,2.12,2.12,0,0,1,1.09-.24A7.76,7.76,0,0,1,4,37.24l.24,0,0,.73a12,12,0,0,0-1.33-.09,1.38,1.38,0,0,0-.79.18.76.76,0,0,0-.3.49,5.3,5.3,0,0,0-.06.92,4.42,4.42,0,0,0,.08.94.77.77,0,0,0,.3.47,1.12,1.12,0,0,0,.64.15,3.51,3.51,0,0,0,.56,0v-.9H2.85v-.82H4.2v2.41a11.44,11.44,0,0,1-1.58.16A2.15,2.15,0,0,1,1.49,41.64Z"/><path class="cls-1" d="M5.16,37.18H7c1.09,0,1.64.51,1.64,1.53A1.46,1.46,0,0,1,7.92,40l.66,1.78h-1L7,40.26H6.1v1.56H5.16ZM7,39.46a.63.63,0,0,0,.49-.2.86.86,0,0,0,.17-.55.76.76,0,0,0-.18-.53A.64.64,0,0,0,7,38H6.1v1.48Z"/><path class="cls-1" d="M11.77,41H10.15l-.19.84H9l1-4.64h1.79l1,4.64H12Zm-.65-3h-.33l-.47,2.2h1.27Z"/><path class="cls-1" d="M17.3,37.18v4.64H15.75L14.6,38h-.07v3.82h-.94V37.18h1.59L16.29,41h.07V37.18Z"/><path class="cls-1" d="M21.16,37.4a1.21,1.21,0,0,1,.59.7,4.18,4.18,0,0,1,.17,1.32,4.64,4.64,0,0,1-.17,1.39,1.27,1.27,0,0,1-.59.76,2.48,2.48,0,0,1-1.21.25H18.39V37.18H20A2.64,2.64,0,0,1,21.16,37.4Zm-.55,3.42a.84.84,0,0,0,.27-.51,4.54,4.54,0,0,0,.07-.94,3.48,3.48,0,0,0-.07-.83.64.64,0,0,0-.28-.41A1.24,1.24,0,0,0,20,38h-.62v3H20A1,1,0,0,0,20.61,40.82Z"/><path class="cls-1" d="M25,41.64a1.38,1.38,0,0,1-.59-.77,4.78,4.78,0,0,1-.17-1.39,4.35,4.35,0,0,1,.18-1.38,1.39,1.39,0,0,1,.59-.76,2.12,2.12,0,0,1,1.09-.24,7.67,7.67,0,0,1,1.37.14l.24,0,0,.73a12.3,12.3,0,0,0-1.34-.09,1.32,1.32,0,0,0-.78.18.74.74,0,0,0-.31.49,5.3,5.3,0,0,0-.06.92,3.75,3.75,0,0,0,.09.94.72.72,0,0,0,.29.47,1.14,1.14,0,0,0,.64.15,3.67,3.67,0,0,0,.57,0v-.9h-.43v-.82h1.35v2.41a11.44,11.44,0,0,1-1.58.16A2.15,2.15,0,0,1,25,41.64Z"/><path class="cls-1" d="M28.62,37.18h1.8c1.1,0,1.64.51,1.64,1.53A1.46,1.46,0,0,1,31.38,40L32,41.82H31l-.54-1.56h-.9v1.56h-.95Zm1.82,2.28a.62.62,0,0,0,.49-.2.86.86,0,0,0,.17-.55.76.76,0,0,0-.18-.53.64.64,0,0,0-.5-.2h-.85v1.48Z"/><path class="cls-1" d="M33.87,38v1.08h1.65v.81H33.87V41h2.06v.82h-3V37.18h3V38Z"/><path class="cls-1" d="M39.14,41H37.51l-.18.84h-.94l1-4.64h1.79l1,4.64h-.94Zm-.65-3h-.33l-.47,2.2H39Z"/><path class="cls-1" d="M41.53,38H40.29v-.83H43.7V38H42.47v3.81h-.94Z"/><path class="cls-1" d="M46.51,41.64a1.34,1.34,0,0,1-.59-.77,4.42,4.42,0,0,1-.18-1.39,4.06,4.06,0,0,1,.19-1.38,1.37,1.37,0,0,1,.58-.76,2.17,2.17,0,0,1,1.09-.24,7.67,7.67,0,0,1,1.37.14l.25,0,0,.73a12.14,12.14,0,0,0-1.34-.09,1.34,1.34,0,0,0-.78.18.73.73,0,0,0-.3.49,5.3,5.3,0,0,0-.06.92,4.42,4.42,0,0,0,.08.94.73.73,0,0,0,.3.47,1.1,1.1,0,0,0,.64.15,3.6,3.6,0,0,0,.56,0v-.9h-.42v-.82h1.35v2.41a11.59,11.59,0,0,1-1.58.16A2.12,2.12,0,0,1,46.51,41.64Z"/><path class="cls-1" d="M50.77,41.64a1.41,1.41,0,0,1-.61-.77A4.21,4.21,0,0,1,50,39.52a4.3,4.3,0,0,1,.19-1.37,1.53,1.53,0,0,1,.61-.79,2.56,2.56,0,0,1,2.25,0,1.48,1.48,0,0,1,.61.79,4,4,0,0,1,.19,1.37,4.11,4.11,0,0,1-.18,1.33,1.38,1.38,0,0,1-.61.78,2.08,2.08,0,0,1-1.13.27A2.17,2.17,0,0,1,50.77,41.64Zm1.7-.71a.83.83,0,0,0,.29-.49,4.8,4.8,0,0,0,0-1.85,1,1,0,0,0-.29-.51,1.1,1.1,0,0,0-1.14,0,1,1,0,0,0-.3.51,3.83,3.83,0,0,0-.09.93,4,4,0,0,0,.08.87.91.91,0,0,0,.28.51.9.9,0,0,0,.6.18A1,1,0,0,0,52.47,40.93Z"/><path class="cls-1" d="M57.34,41v.84H54.7V37.18h.94V41Z"/><path class="cls-1" d="M60.76,37.4a1.18,1.18,0,0,1,.59.7,3.91,3.91,0,0,1,.17,1.32,4.68,4.68,0,0,1-.16,1.39,1.31,1.31,0,0,1-.59.76,2.52,2.52,0,0,1-1.22.25H58V37.18h1.56A2.61,2.61,0,0,1,60.76,37.4Zm-.55,3.42a.85.85,0,0,0,.28-.51,5.57,5.57,0,0,0,.06-.94,3.48,3.48,0,0,0-.07-.83.63.63,0,0,0-.27-.41,1.28,1.28,0,0,0-.66-.13h-.62v3h.62A1,1,0,0,0,60.21,40.82Z"/><path class="cls-1" d="M63.35,38v1.08H65v.81H63.35V41h2.06v.82h-3V37.18h3V38Z"/><path class="cls-1" d="M70,37.18v4.64H68.43L67.27,38h-.06v3.82h-.94V37.18h1.58L69,41H69V37.18Z"/><path class="cls-1" d="M73.21,41.64a1.34,1.34,0,0,1-.59-.77,4.42,4.42,0,0,1-.18-1.39,4.06,4.06,0,0,1,.19-1.38,1.37,1.37,0,0,1,.58-.76,2.17,2.17,0,0,1,1.09-.24,7.67,7.67,0,0,1,1.37.14l.25,0,0,.73a12.14,12.14,0,0,0-1.34-.09,1.34,1.34,0,0,0-.78.18.76.76,0,0,0-.3.49,5.3,5.3,0,0,0-.06.92,4.42,4.42,0,0,0,.08.94.73.73,0,0,0,.3.47,1.1,1.1,0,0,0,.64.15,3.6,3.6,0,0,0,.56,0v-.9h-.42v-.82h1.35v2.41a11.59,11.59,0,0,1-1.58.16A2.12,2.12,0,0,1,73.21,41.64Z"/><path class="cls-1" d="M79.24,41H77.61l-.18.84h-.94l1-4.64h1.79l1,4.64h-.94Zm-.65-3h-.33l-.47,2.2h1.27Z"/><path class="cls-1" d="M81.63,38H80.39v-.83H83.8V38H82.57v3.81h-.94Z"/><path class="cls-1" d="M85.41,38v1.08h1.65v.81H85.41V41h2.06v.82h-3V37.18h3V38Z"/></g><path class="cls-3" d="M102,30.9A25.25,25.25,0,0,0,127.3,56.15V30.9Z"/><path class="cls-3" d="M102,30A25.25,25.25,0,0,1,127.3,4.75V30Z"/><path class="cls-3" d="M128.2,30.9V56.15A25.25,25.25,0,0,0,153.45,30.9Z"/><path class="cls-4" d="M156.5,29.12A27.43,27.43,0,0,0,129.07,1.7V29.12Z"/><path class="cls-5" d="M120.19,9.41A10.25,10.25,0,1,0,127.38,22"/><path class="cls-5" d="M120.56,31.43A10.25,10.25,0,1,0,127.74,44"/><path class="cls-6" d="M143.35,6.93A10.92,10.92,0,1,0,151,20.34"/><path class="cls-5" d="M141.84,30.94A10.25,10.25,0,1,0,149,43.52"/><circle class="cls-7" cx="128.2" cy="30" r="28.3"/></svg>